<svg xml:space="preserve" xmlns:xlink="http://www.w3.org/1999/xlink" xmlns="http://www.w3.org/2000/svg" version="1.1" viewBox="0 0 671.2199999999999 216.26455026455028" style="max-height: 500px" width="671.2199999999999" height="216.26455026455028">
    <g transform="matrix(1,0,0,1,-969.308,-1381.51)">
        <g transform="matrix(4.16667,0,0,4.16667,0,0)">
            <path style="fill:rgb(0,86,152);fill-rule:nonzero;" d="M262.984,347.521L248.28,380.904C251.242,382.126 254.485,382.803 257.889,382.803C261.22,382.803 264.398,382.151 267.309,380.979L263.656,347.623C263.426,347.612 263.2,347.578 262.984,347.521"/>
        </g>
        <g transform="matrix(4.16667,0,0,4.16667,0,0)">
            <path style="fill:rgb(0,86,152);fill-rule:nonzero;" d="M263.909,340.805C265.304,340.834 266.478,341.697 266.983,342.907L276.624,340.616C272.34,335.878 266.28,332.777 259.493,332.351L263.053,340.907C263.33,340.842 263.612,340.799 263.909,340.805"/>
        </g>
        <g transform="matrix(4.16667,0,0,4.16667,0,0)">
            <path style="fill:rgb(0,86,152);fill-rule:nonzero;" d="M261.33,346.535L233.681,364.746C235.573,371.12 239.912,376.439 245.612,379.617L261.841,346.991C261.656,346.855 261.485,346.702 261.33,346.535"/>
        </g>
        <g transform="matrix(4.16667,0,0,4.16667,0,0)">
            <path style="fill:rgb(0,86,152);fill-rule:nonzero;" d="M260.456,344.594L236.997,343.36C234.245,347.403 232.634,352.286 232.634,357.548C232.634,358.968 232.758,360.359 232.982,361.717L260.652,345.45C260.546,345.181 260.489,344.89 260.456,344.594"/>
        </g>
        <g transform="matrix(4.16667,0,0,4.16667,0,0)">
            <path style="fill:rgb(0,86,152);fill-rule:nonzero;" d="M266.659,346.136L282.837,361.473C283.037,360.192 283.141,358.882 283.141,357.548C283.141,352.129 281.43,347.114 278.525,343.001L267.242,344.364C267.215,345.02 267.005,345.627 266.659,346.136"/>
        </g>
        <g transform="matrix(4.16667,0,0,4.16667,0,0)">
            <path style="fill:rgb(0,86,152);fill-rule:nonzero;" d="M261.691,341.581L256.409,332.341C249.532,332.74 243.394,335.887 239.078,340.701L260.566,343.276C260.762,342.599 261.161,342.015 261.691,341.581"/>
        </g>
        <g transform="matrix(4.16667,0,0,4.16667,0,0)">
            <path style="fill:rgb(0,86,152);fill-rule:nonzero;" d="M264.915,347.448L270.091,379.66C275.844,376.478 280.22,371.116 282.112,364.688L265.726,347.061C265.479,347.226 265.204,347.352 264.915,347.448"/>
        </g>
        <g transform="matrix(4.16667,0,0,4.16667,0,0)">
            <path style="fill:rgb(0,86,152);fill-rule:nonzero;" d="M297.09,352.361L299.524,352.361C300.217,352.361 300.785,352.53 301.231,352.866C301.675,353.204 301.896,353.767 301.896,354.557C301.896,355.466 301.655,356.105 301.172,356.472C300.686,356.838 300.097,357.02 299.406,357.02L297.09,357.02L297.09,352.361ZM297.09,360.937L298.907,360.937L301.675,369.099L306.35,369.099L303.016,360.165C304.008,359.633 304.762,358.89 305.279,357.939C305.794,356.991 306.053,355.853 306.053,354.528C306.053,353.459 305.884,352.544 305.546,351.784C305.208,351.021 304.749,350.393 304.163,349.898C303.578,349.405 302.894,349.037 302.113,348.8C301.327,348.562 300.5,348.444 299.628,348.444L292.788,348.444L292.788,369.099L297.09,369.099L297.09,360.937Z"/>
        </g>
        <g transform="matrix(4.16667,0,0,4.16667,0,0)">
            <path style="fill:rgb(0,86,152);fill-rule:nonzero;" d="M313.146,354.735C313.146,354.497 313.189,354.246 313.28,353.977C313.368,353.71 313.505,353.464 313.694,353.236C313.883,353.009 314.124,352.82 314.421,352.673C314.717,352.523 315.083,352.449 315.519,352.449C315.953,352.449 316.314,352.533 316.601,352.702C316.89,352.869 317.122,353.073 317.3,353.311C317.477,353.549 317.601,353.794 317.67,354.052C317.74,354.309 317.774,354.537 317.774,354.735L317.774,362.895C317.774,363.588 317.552,364.132 317.106,364.527C316.662,364.924 316.132,365.12 315.519,365.12C314.668,365.12 314.059,364.863 313.694,364.35C313.327,363.836 313.146,363.183 313.146,362.39L313.146,354.735ZM310.416,367.185C310.95,367.827 311.637,368.336 312.478,368.713C313.317,369.088 314.332,369.277 315.519,369.277C316.487,369.277 317.373,369.121 318.175,368.815C318.976,368.509 319.667,368.065 320.253,367.481C320.834,366.898 321.292,366.195 321.618,365.374C321.944,364.553 322.107,363.627 322.107,362.6L322.107,354.912C322.107,354.103 321.974,353.301 321.706,352.508C321.439,351.718 321.038,351.011 320.504,350.386C319.97,349.764 319.288,349.259 318.457,348.874C317.626,348.489 316.646,348.294 315.519,348.294C314.313,348.294 313.289,348.497 312.449,348.903C311.606,349.31 310.92,349.828 310.384,350.461C309.852,351.093 309.465,351.801 309.227,352.584C308.99,353.364 308.872,354.142 308.872,354.912L308.872,362.272C308.872,363.201 308.995,364.093 309.243,364.943C309.49,365.794 309.881,366.54 310.416,367.185"/>
        </g>
        <g transform="matrix(4.16667,0,0,4.16667,0,0)">
            <path style="fill:rgb(0,86,152);fill-rule:nonzero;" d="M331.722,365.209C330.97,365.209 330.302,365.032 329.718,364.677C329.135,364.321 328.577,363.767 328.041,363.015L324.658,365.745C325.014,366.258 325.419,366.729 325.876,367.154C326.33,367.58 326.839,367.945 327.404,368.254C327.968,368.558 328.601,368.802 329.302,368.978C330.003,369.157 330.791,369.245 331.661,369.245C333.897,369.245 335.625,368.698 336.841,367.6C338.057,366.502 338.666,364.963 338.666,362.983C338.666,362.233 338.581,361.542 338.414,360.907C338.245,360.275 337.953,359.695 337.538,359.171C337.122,358.648 336.568,358.183 335.877,357.778C335.183,357.372 334.323,357.01 333.296,356.694C332.779,356.535 332.296,356.368 331.84,356.189C331.384,356.012 330.989,355.824 330.654,355.625C330.318,355.429 330.05,355.209 329.852,354.971C329.654,354.735 329.555,354.468 329.555,354.172C329.555,353.618 329.758,353.172 330.164,352.836C330.569,352.5 331.088,352.331 331.722,352.331C332.928,352.331 334.026,352.915 335.016,354.081L338.102,351.174C337.411,350.224 336.564,349.506 335.564,349.023C334.566,348.538 333.286,348.295 331.722,348.295C330.752,348.295 329.868,348.444 329.064,348.741C328.265,349.037 327.577,349.457 327.004,350.001C326.428,350.546 325.984,351.19 325.668,351.93C325.352,352.673 325.193,353.488 325.193,354.378C325.193,355.15 325.293,355.843 325.489,356.456C325.688,357.071 326,357.613 326.424,358.088C326.849,358.564 327.399,358.988 328.07,359.365C328.744,359.74 329.555,360.076 330.504,360.373C331.019,360.512 331.494,360.66 331.928,360.819C332.364,360.976 332.745,361.164 333.071,361.382C333.4,361.601 333.655,361.852 333.843,362.139C334.03,362.426 334.124,362.767 334.124,363.162C334.124,363.736 333.951,364.221 333.606,364.616C333.26,365.012 332.632,365.209 331.722,365.209"/>
        </g>
        <g transform="matrix(4.16667,0,0,4.16667,0,0)">
            <path style="fill:rgb(0,86,152);fill-rule:nonzero;" d="M347.715,365.209C346.963,365.209 346.297,365.032 345.713,364.677C345.13,364.321 344.57,363.767 344.036,363.015L340.654,365.745C341.009,366.258 341.416,366.729 341.871,367.154C342.325,367.58 342.834,367.945 343.4,368.254C343.961,368.558 344.594,368.802 345.297,368.978C346,369.157 346.786,369.245 347.656,369.245C349.891,369.245 351.618,368.698 352.834,367.6C354.052,366.502 354.661,364.963 354.661,362.983C354.661,362.233 354.576,361.542 354.407,360.907C354.238,360.275 353.948,359.695 353.531,359.171C353.117,358.648 352.563,358.183 351.871,357.778C351.178,357.372 350.318,357.01 349.29,356.694C348.774,356.535 348.29,356.368 347.835,356.189C347.379,356.012 346.984,355.824 346.648,355.625C346.311,355.429 346.044,355.209 345.847,354.971C345.649,354.735 345.548,354.468 345.548,354.172C345.548,353.618 345.753,353.172 346.157,352.836C346.564,352.5 347.083,352.331 347.715,352.331C348.923,352.331 350.021,352.915 351.009,354.081L354.097,351.174C353.404,350.224 352.559,349.506 351.559,349.023C350.559,348.538 349.278,348.295 347.715,348.295C346.747,348.295 345.861,348.444 345.061,348.741C344.258,349.037 343.57,349.457 342.997,350.001C342.423,350.546 341.979,351.19 341.661,351.93C341.345,352.673 341.188,353.488 341.188,354.378C341.188,355.15 341.286,355.843 341.484,356.456C341.681,357.071 341.993,357.613 342.419,358.088C342.844,358.564 343.394,358.988 344.065,359.365C344.737,359.74 345.548,360.076 346.499,360.373C347.014,360.512 347.489,360.66 347.923,360.819C348.357,360.976 348.74,361.164 349.066,361.382C349.393,361.601 349.65,361.852 349.838,362.139C350.025,362.426 350.121,362.767 350.121,363.162C350.121,363.736 349.946,364.221 349.601,364.616C349.255,365.012 348.626,365.209 347.715,365.209"/>
        </g>
        <g transform="matrix(4.16667,0,0,4.16667,0,0)">
            <path style="fill:rgb(0,86,152);fill-rule:nonzero;" d="M357.538,369.098L369.557,369.098L369.557,365.032L361.842,365.032L361.842,360.64L368.489,360.64L368.489,356.694L361.842,356.694L361.842,352.419L369.557,352.419L369.557,348.444L357.538,348.444L357.538,369.098Z"/>
        </g>
        <g transform="matrix(4.16667,0,0,4.16667,0,0)">
            <path style="fill:rgb(0,86,152);fill-rule:nonzero;" d="M370.744,352.361L375.166,352.361L375.166,369.099L379.438,369.099L379.438,352.361L383.861,352.361L383.861,348.444L370.744,348.444L370.744,352.361Z"/>
        </g>
        <g transform="matrix(4.16667,0,0,4.16667,0,0)">
            <rect style="fill:rgb(0,86,152);fill-rule:nonzero;" height="20.654" width="4.302" y="348.444" x="386.325"/>
        </g>
    </g>
</svg>